<?xml version="1.0" encoding="UTF-8"?>
<svg version="1.1" xmlns="http://www.w3.org/2000/svg" width="500" height="261">
<path d="M0 0 C165 0 330 0 500 0 C500 86.13 500 172.26 500 261 C335 261 170 261 0 261 C0 174.87 0 88.74 0 0 Z " fill="#E3027C" transform="translate(0,0)"/>
<path d="M0 0 C165 0 330 0 500 0 C500 86.13 500 172.26 500 261 C335 261 170 261 0 261 C0 174.87 0 88.74 0 0 Z M8 8 C8 88.85 8 169.7 8 253 C167.72 253 327.44 253 492 253 C492 172.15 492 91.3 492 8 C332.28 8 172.56 8 8 8 Z " fill="#B0C80C" transform="translate(0,0)"/>
<path d="M0 0 C22.4609375 -0.26953125 22.4609375 -0.26953125 27 2 C27 17.84 27 33.68 27 50 C27.66 50 28.32 50 29 50 C29 51.32 29 52.64 29 54 C29.66 54 30.32 54 31 54 C32.25664978 56.90600261 33 58.79604584 33 62 C33.66 62 34.32 62 35 62 C35 62.66 35 63.32 35 64 C35.66 64 36.32 64 37 64 C37 64.66 37 65.32 37 66 C37.66 66 38.32 66 39 66 C39 66.66 39 67.32 39 68 C39.66 68 40.32 68 41 68 C41 68.66 41 69.32 41 70 C42.5159375 70.4021875 42.5159375 70.4021875 44.0625 70.8125 C46.62147074 71.49141061 48.69599202 72.3444809 51.09375 73.53125 C55.7481745 75.5607703 60.42411772 75.56117287 65.4375 75.6875 C66.35982422 75.72166016 67.28214844 75.75582031 68.23242188 75.79101562 C70.48815951 75.87282994 72.74354119 75.94219122 75 76 C75 75.34 75 74.68 75 74 C75.66 74 76.32 74 77 74 C77.66 72.02 78.32 70.04 79 68 C79.66 68 80.32 68 81 68 C81 66.68 81 65.36 81 64 C81.66 64 82.32 64 83 64 C84.20546685 55.17679303 84.33693484 46.32660877 84.5625 37.4375 C84.60577645 35.84048545 84.64939337 34.24348009 84.69335938 32.64648438 C84.79950069 28.76441777 84.90102619 24.88225568 85 21 C85.66 21.33 86.32 21.66 87 22 C87 23.98 87 25.96 87 28 C87.66 28 88.32 28 89 28 C89.05883728 31.47909371 89.09387399 34.95805674 89.125 38.4375 C89.14175781 39.41138672 89.15851563 40.38527344 89.17578125 41.38867188 C89.21696375 47.54545547 88.64447345 53.06688174 87 59 C86.81050781 59.69287109 86.62101562 60.38574219 86.42578125 61.09960938 C85.96618057 62.73754796 85.48565228 64.36959592 85 66 C84.34 66 83.68 66 83 66 C82.855625 66.5775 82.71125 67.155 82.5625 67.75 C82.04166667 69.83333333 81.52083333 71.91666667 81 74 C82.32 74 83.64 74 85 74 C85 73.34 85 72.68 85 72 C90.41176471 68 90.41176471 68 93 68 C93 67.34 93 66.68 93 66 C93.66 66 94.32 66 95 66 C95 65.34 95 64.68 95 64 C95.66 64 96.32 64 97 64 C98.51297182 61.59704475 99.03665969 60.36659693 98.75 57.5 C98.08076238 55.00981642 98.08076238 55.00981642 96.9375 52.875 C96 51 96 51 96 48 C96.99 48 97.98 48 99 48 C98.505 44.535 98.505 44.535 98 41 C98.66 40.67 99.32 40.34 100 40 C99.67 39.67 99.34 39.34 99 39 C98.95919217 37.00041636 98.95745644 34.99954746 99 33 C100.485 33.495 100.485 33.495 102 34 C101.01 31.03 101.01 31.03 100 28 C99.34 28 98.68 28 98 28 C98.33 27.34 98.66 26.68 99 26 C100.32 26.66 101.64 27.32 103 28 C103 27.01 103 26.02 103 25 C101.515 25.495 101.515 25.495 100 26 C98 25 98 25 97 22 C96.34 21.67 95.68 21.34 95 21 C94.505 19.515 94.505 19.515 94 18 C93.484375 17.484375 92.96875 16.96875 92.4375 16.4375 C91.963125 15.963125 91.48875 15.48875 91 15 C91 14.34 91 13.68 91 13 C90.34 13 89.68 13 89 13 C88.01 11.02 88.01 11.02 87 9 C88.65 9 90.3 9 92 9 C91.01 7.515 91.01 7.515 90 6 C90.33 5.01 90.66 4.02 91 3 C95.71322444 5.35661222 98.99934765 8.72071916 102 13 C102 13.66 102 14.32 102 15 C102.66 15 103.32 15 104 15 C104.99 18.96 104.99 18.96 106 23 C107.32 22.34 108.64 21.68 110 21 C109.67 23.31 109.34 25.62 109 28 C109.99 28 110.98 28 112 28 C111.125 33.75 111.125 33.75 110 36 C111.32 35.67 112.64 35.34 114 35 C113.45276317 38.37462715 112.9451 40.08235 111 43 C111.99 43 112.98 43 114 43 C114 43.66 114 44.32 114 45 C112.37373596 46.38232443 110.7074998 47.71937515 109 49 C110.485 49.495 110.485 49.495 112 50 C111.43056986 53.30269479 110.59070637 54.87191977 108 57 C107.154375 57.495 106.30875 57.99 105.4375 58.5 C102.75281489 59.91804659 102.75281489 59.91804659 101 63 C100.34 63 99.68 63 99 63 C98.896875 63.7425 98.79375 64.485 98.6875 65.25 C97.95066203 68.1973519 97.05200858 69.78383074 95 72 C94.34 72 93.68 72 93 72 C92.505 73.98 92.505 73.98 92 76 C89.03 76 86.06 76 83 76 C83 76.66 83 77.32 83 78 C81.68 78 80.36 78 79 78 C79 78.66 79 79.32 79 80 C78.34 80 77.68 80 77 80 C76.855625 80.61875 76.71125 81.2375 76.5625 81.875 C76 84 76 84 75 86 C69.72 86 64.44 86 59 86 C59 85.34 59 84.68 59 84 C58.34 84 57.68 84 57 84 C55.98133771 82.34467377 54.98189187 80.67739862 54 79 C50.93466836 77.46733418 47.73245728 77.89723529 44.375 77.9375 C43.66859375 77.94201172 42.9621875 77.94652344 42.234375 77.95117188 C40.48954725 77.96296125 38.744763 77.98089676 37 78 C37 77.34 37 76.68 37 76 C36.34 76 35.68 76 35 76 C35 75.34 35 74.68 35 74 C34.071875 73.62875 34.071875 73.62875 33.125 73.25 C30.64931313 71.79371361 30.04874998 70.62187494 29 68 C28.34 68 27.68 68 27 68 C26.21814659 66.54754505 25.45028172 65.08756083 24.6875 63.625 C24.25824219 62.81289062 23.82898438 62.00078125 23.38671875 61.1640625 C22.70029297 59.59785156 22.70029297 59.59785156 22 58 C21.72583252 57.37528809 21.45166504 56.75057617 21.16918945 56.10693359 C17.87501923 47.19971556 18.67485721 37.71912745 18.8125 28.375 C18.8275734 26.58985503 18.84125711 24.80469776 18.85351562 23.01953125 C18.88374126 18.67913061 18.9424963 14.34046417 19 10 C12.73 10 6.46 10 0 10 C0 6.7 0 3.4 0 0 Z " fill="#B9A820" transform="translate(57,98)"/>
<path d="M0 0 C0.99 0 1.98 0 3 0 C5.45823172 3.68734758 6.01242616 6.69699971 7 11 C5.68 11.33 4.36 11.66 3 12 C3.495 13.485 3.495 13.485 4 15 C4.66 15 5.32 15 6 15 C6.1546875 15.9590625 6.1546875 15.9590625 6.3125 16.9375 C6.539375 17.618125 6.76625 18.29875 7 19 C7.99 19.33 8.98 19.66 10 20 C10 20.99 10 21.98 10 23 C10.99 23.33 11.98 23.66 13 24 C13 24.99 13 25.98 13 27 C14.32 27.33 15.64 27.66 17 28 C17.33 27.34 17.66 26.68 18 26 C18.495 28.475 18.495 28.475 19 31 C16.525 30.01 16.525 30.01 14 29 C14.33 29.33 14.66 29.66 15 30 C16.01965427 32.32481174 17.02059602 34.65794699 18 37 C17.01 36.67 16.02 36.34 15 36 C15 36.763125 15 37.52625 15 38.3125 C15 40.20833333 15 42.10416667 15 44 C14.01 43.505 14.01 43.505 13 43 C13.495 46.465 13.495 46.465 14 50 C13.01 50 12.02 50 11 50 C11.30035156 50.51949219 11.60070312 51.03898437 11.91015625 51.57421875 C15.03120429 57.29790346 15.03120429 57.29790346 14.875 60.8125 C14 63 14 63 12 66 C11.34 66 10.68 66 10 66 C10 66.66 10 67.32 10 68 C9.34 68 8.68 68 8 68 C8 68.66 8 69.32 8 70 C2.58823529 74 2.58823529 74 0 74 C0 74.66 0 75.32 0 76 C-1.32 76 -2.64 76 -4 76 C-3.47731534 73.23723823 -2.89130413 70.6739124 -2 68 C-1.34 68 -0.68 68 0 68 C-0.04125 67.13375 -0.0825 66.2675 -0.125 65.375 C0.00571558 61.8456793 0.78222634 59.29515227 2 56 C2.9119527 52.90612206 3.18537832 50.01641833 3.31640625 46.796875 C3.37924805 45.32734375 3.37924805 45.32734375 3.44335938 43.828125 C3.48267578 42.81234375 3.52199219 41.7965625 3.5625 40.75 C3.62727539 39.203125 3.62727539 39.203125 3.69335938 37.625 C3.79925682 35.0834613 3.90133443 32.54182804 4 30 C3.34 30 2.68 30 2 30 C1.67 28.02 1.34 26.04 1 24 C0.98018066 24.95253662 0.96036133 25.90507324 0.93994141 26.88647461 C0.86320563 30.45947332 0.77460022 34.03210034 0.68261719 37.60473633 C0.64460557 39.14372355 0.60970707 40.68279124 0.578125 42.22192383 C0.40944952 50.34206682 0.20469519 58.12224767 -2 66 C-2.66 66 -3.32 66 -4 66 C-4 67.32 -4 68.64 -4 70 C-4.66 70 -5.32 70 -6 70 C-6.144375 70.61875 -6.28875 71.2375 -6.4375 71.875 C-7 74 -7 74 -8 76 C-8.66 76 -9.32 76 -10 76 C-10 76.66 -10 77.32 -10 78 C-16.6 78 -23.2 78 -30 78 C-30 77.67 -30 77.34 -30 77 C-24.06 76.67 -18.12 76.34 -12 76 C-12.66 75.67 -13.32 75.34 -14 75 C-14 72.69 -14 70.38 -14 68 C-14.66 68 -15.32 68 -16 68 C-20 61.375 -20 61.375 -20 58 C-20.66 58 -21.32 58 -22 58 C-22 56.02 -22 54.04 -22 52 C-22.66 52 -23.32 52 -24 52 C-24.08820927 48.83351345 -24.1407905 45.66734908 -24.1875 42.5 C-24.21263672 41.613125 -24.23777344 40.72625 -24.26367188 39.8125 C-24.33894565 32.98767771 -23.06570064 28.13140128 -20 22 C-19.34 22 -18.68 22 -18 22 C-18 20.68 -18 19.36 -18 18 C-17.34 18 -16.68 18 -16 18 C-16 17.34 -16 16.68 -16 16 C-15.34 16 -14.68 16 -14 16 C-14 15.34 -14 14.68 -14 14 C-13.34 14 -12.68 14 -12 14 C-12 13.01 -12 12.02 -12 11 C-9.6875 8.3125 -9.6875 8.3125 -7 6 C-6.01 6 -5.02 6 -4 6 C-3.566875 5.071875 -3.566875 5.071875 -3.125 4.125 C-2 2 -2 2 0 0 Z " fill="#E4097C" transform="translate(142,96)"/>
<path d="M0 0 C3.39200196 2.84207911 4.75906846 4.48932862 5.4609375 8.89013672 C5.6383934 12.39850169 5.63221218 15.86301362 5.5625 19.375 C5.57345703 20.56867188 5.58441406 21.76234375 5.59570312 22.9921875 C5.52704279 31.26804632 4.69350679 37.30649321 -1.375 43.375 C-6.69756647 46.6699221 -11.83385253 47.3634095 -18 47.375 C-18.68578125 47.39949219 -19.3715625 47.42398438 -20.078125 47.44921875 C-25.21804214 47.47864576 -28.04401681 46.20329612 -32 43 C-35.67097574 38.84600114 -36.66526168 35.57799879 -36.375 30.171875 C-35.51702588 25.20277489 -32.61238818 22.19417171 -28.6875 19.3125 C-22.76709159 15.8166398 -15.69667629 15.07251456 -9 14 C-8.67 12.68 -8.34 11.36 -8 10 C-11.69405432 7.53729712 -13.63277072 7.77014583 -18 8 C-20.31036915 8.42854995 -20.31036915 8.42854995 -22 9 C-22 9.66 -22 10.32 -22 11 C-25.96 11 -29.92 11 -34 11 C-33.73974099 7.26962089 -33.2380428 5.31017698 -30.9375 2.3125 C-22.46531512 -4.35709235 -9.48375874 -5.69025524 0 0 Z " fill="#FDF6F8" transform="translate(315,126)"/>
<path d="M0 0 C9 0 9 0 12 2 C12.34057617 3.87939453 12.34057617 3.87939453 12.29296875 6.1328125 C12.28330078 6.93847656 12.27363281 7.74414062 12.26367188 8.57421875 C12.23853516 9.41597656 12.21339844 10.25773437 12.1875 11.125 C12.17396484 11.97449219 12.16042969 12.82398437 12.14648438 13.69921875 C12.11108219 15.79974837 12.05727401 17.89995293 12 20 C12.61488281 19.57847656 13.22976562 19.15695313 13.86328125 18.72265625 C14.67152344 18.17480469 15.47976562 17.62695312 16.3125 17.0625 C17.11300781 16.51722656 17.91351563 15.97195312 18.73828125 15.41015625 C22.87606842 12.8302924 26.19818135 12.61275656 31 13 C36.63589356 14.74874269 40.82377764 16.83863867 44 22 C45.27385127 25.8215538 45.12353188 29.4068447 45.09765625 33.38671875 C45.0962413 34.20372757 45.09482635 35.02073639 45.09336853 35.86250305 C45.08777294 38.47087268 45.07522129 41.07915634 45.0625 43.6875 C45.05748443 45.45637897 45.05292162 47.22525928 45.04882812 48.99414062 C45.03780496 53.32946019 45.02054338 57.66471552 45 62 C41.04 62 37.08 62 33 62 C32.98541748 61.11739502 32.97083496 60.23479004 32.95581055 59.32543945 C32.89457933 56.03561357 32.8203967 52.7466007 32.73754883 49.45727539 C32.70439443 48.03648798 32.67633308 46.61557187 32.65356445 45.19458008 C32.61984153 43.1460918 32.56752255 41.0987728 32.51171875 39.05078125 C32.48553467 37.82012939 32.45935059 36.58947754 32.43237305 35.3215332 C31.96683474 31.74522115 31.16453099 29.85592962 29 27 C25.51195905 24.67463937 24.09859246 24.66542102 20 25 C17.50682323 25.83105892 16.38018184 26.43289685 14.91650391 28.61621094 C13.67239479 31.8520877 13.64411499 34.96926081 13.5859375 38.390625 C13.56657135 39.09523865 13.5472052 39.79985229 13.5272522 40.52581787 C13.46767265 42.76709039 13.42115877 45.00841489 13.375 47.25 C13.33680021 48.77345938 13.29774731 50.29689762 13.2578125 51.8203125 C13.16198982 55.54668106 13.07787893 59.27320835 13 63 C8.71 63 4.42 63 0 63 C0 42.21 0 21.42 0 0 Z " fill="#FDF4F9" transform="translate(229,110)"/>
<path d="M0 0 C8 0 8 0 10.46191406 1.09887695 C12.68665264 3.84872446 12.54588339 5.91005725 12.609375 9.41796875 C12.64160156 10.67158203 12.67382812 11.92519531 12.70703125 13.21679688 C12.72121094 14.52712891 12.73539062 15.83746094 12.75 17.1875 C12.77815981 18.52282536 12.80808729 19.8581147 12.83984375 21.19335938 C12.91065116 24.46230149 12.96329633 27.73052579 13 31 C14.98195646 28.87754286 16.96064257 26.75219732 18.9375 24.625 C19.50146484 24.02171875 20.06542969 23.4184375 20.64648438 22.796875 C21.18466797 22.21679688 21.72285156 21.63671875 22.27734375 21.0390625 C22.77484131 20.50490723 23.27233887 19.97075195 23.78491211 19.42041016 C25.10293508 17.9954525 25.10293508 17.9954525 26 16 C30.95 16 35.9 16 41 16 C40.01 17.65 39.02 19.3 38 21 C37.34 21 36.68 21 36 21 C35.75507813 21.57234375 35.51015625 22.1446875 35.2578125 22.734375 C33.78889901 25.38024402 32.04651756 27.14853139 29.875 29.25 C29.15054687 29.95640625 28.42609375 30.6628125 27.6796875 31.390625 C27.12539063 31.92171875 26.57109375 32.4528125 26 33 C27.35882612 36.63905643 29.00109608 39.8696265 31.00390625 43.1953125 C31.57947266 44.15824219 32.15503906 45.12117188 32.74804688 46.11328125 C33.64620117 47.60408203 33.64620117 47.60408203 34.5625 49.125 C35.75392875 51.10519281 36.94285035 53.0868969 38.12890625 55.0703125 C38.65556885 55.94445801 39.18223145 56.81860352 39.72485352 57.71923828 C41 60 41 60 42 63 C37.05 63 32.1 63 27 63 C26.37351562 61.79601562 25.74703125 60.59203125 25.1015625 59.3515625 C24.27623628 57.77593971 23.45070477 56.20042444 22.625 54.625 C22.2125 53.8309375 21.8 53.036875 21.375 52.21875 C20.97539062 51.45820313 20.57578125 50.69765625 20.1640625 49.9140625 C19.79748535 49.2123291 19.4309082 48.5105957 19.05322266 47.78759766 C18.00521962 45.83836587 18.00521962 45.83836587 16 44 C14.68 43.67 13.36 43.34 12 43 C12 49.27 12 55.54 12 62 C8.04 62 4.08 62 0 62 C0 41.54 0 21.08 0 0 Z " fill="#FDF9FB" transform="translate(371,110)"/>
<path d="M0 0 C8 0 8 0 10.46191406 1.09887695 C12.68665264 3.84872446 12.54588339 5.91005725 12.609375 9.41796875 C12.64160156 10.67158203 12.67382812 11.92519531 12.70703125 13.21679688 C12.72121094 14.52712891 12.73539062 15.83746094 12.75 17.1875 C12.77815981 18.52282536 12.80808729 19.8581147 12.83984375 21.19335938 C12.91065116 24.46230149 12.96329633 27.73052579 13 31 C14.79419526 29.06478939 16.58541329 27.1269646 18.375 25.1875 C18.88289063 24.64029297 19.39078125 24.09308594 19.9140625 23.52929688 C22.15216303 21.09977985 24.16379112 18.75431332 26 16 C28.62697064 15.77862607 31.00893964 15.71837975 33.625 15.8125 C34.33140625 15.82603516 35.0378125 15.83957031 35.765625 15.85351562 C37.51074128 15.8888896 39.25546608 15.94269779 41 16 C36.60502098 22.32532275 31.54949524 27.67248457 26 33 C27.36008765 36.72023976 29.06444205 39.82697336 31.25 43.125 C39.74892241 56.24676724 39.74892241 56.24676724 42 63 C37.05 63 32.1 63 27 63 C26.37351562 61.79601562 25.74703125 60.59203125 25.1015625 59.3515625 C24.27623628 57.77593971 23.45070477 56.20042444 22.625 54.625 C22.2125 53.8309375 21.8 53.036875 21.375 52.21875 C20.97539062 51.45820313 20.57578125 50.69765625 20.1640625 49.9140625 C19.79748535 49.2123291 19.4309082 48.5105957 19.05322266 47.78759766 C18.00521962 45.83836587 18.00521962 45.83836587 16 44 C14.68 43.67 13.36 43.34 12 43 C12 49.27 12 55.54 12 62 C8.04 62 4.08 62 0 62 C0 41.54 0 21.08 0 0 Z " fill="#FDF7FB" transform="translate(326,110)"/>
<path d="M0 0 C3.704539 3.58558591 5.15907374 6.94577311 6 12 C3.75106046 12.10823773 1.50062425 12.18569645 -0.75 12.25 C-2.62945312 12.31960937 -2.62945312 12.31960937 -4.546875 12.390625 C-8.60179938 11.93192315 -9.38242038 10.9642789 -12 8 C-15.77282526 7.66905042 -18.40735548 7.80245183 -22 9 C-24.7406522 15.25383723 -25.68057981 23.65585973 -23.171875 30.140625 C-21.72451153 32.36567631 -20.38336443 33.80831778 -18 35 C-14.12610754 35.44021505 -12.52955342 35.40346927 -9.375 33 C-4.38803183 30.0447596 0.33691505 30.67011156 6 31 C4.07911258 37.29624208 2.46534814 40.28356327 -3 44 C-7.2481935 46.14296084 -11.26116358 46.366316 -15.9375 46.375 C-16.62779297 46.39949219 -17.31808594 46.42398438 -18.02929688 46.44921875 C-23.19030734 46.47857047 -26.01808868 45.20207112 -30 42 C-35.90294239 35.92840211 -37.19432964 29.76657682 -37.375 21.5625 C-37.20119952 13.96817453 -36.53300324 8.06626708 -31.625 2.125 C-22.12850049 -5.56264246 -10.63655733 -6.44982732 0 0 Z " fill="#FEF7FB" transform="translate(217,127)"/>
<path d="M0 0 C4.6603705 -0.36551926 7.95142865 -0.62058305 12.0625 1.8125 C14 4 14 4 14 7 C14.66 7 15.32 7 16 7 C16 7.66 16 8.32 16 9 C21.28 9 26.56 9 32 9 C32.66 7.02 33.32 5.04 34 3 C34.66 3 35.32 3 36 3 C36 2.34 36 1.68 36 1 C45.93962999 0.22882181 45.93962999 0.22882181 49.75 3 C51.47917197 7.15001272 50.8899171 9.62457425 50 14 C50.66 14 51.32 14 52 14 C52 14.66 52 15.32 52 16 C87.64 16 123.28 16 160 16 C160 16.66 160 17.32 160 18 C94.66 18 29.32 18 -38 18 C-38 17.67 -38 17.34 -38 17 C-25.13 16.67 -12.26 16.34 1 16 C-0.32 14.35 -1.64 12.7 -3 11 C-3.55454859 7.7519297 -3.36999174 6.53957129 -1.5 3.8125 C-1.005 3.214375 -0.51 2.61625 0 2 C0 1.34 0 0.68 0 0 Z " fill="#F251AA" transform="translate(100,175)"/>
<path d="M0 0 C0.66 0 1.32 0 2 0 C2 20.46 2 40.92 2 62 C5.96 62 9.92 62 14 62 C14 55.73 14 49.46 14 43 C19 44 19 44 20.8125 45.9375 C22 48 22 48 22 50 C21.34 50 20.68 50 20 50 C19.67 49.01 19.34 48.02 19 47 C18.01 46.67 17.02 46.34 16 46 C16.01160156 47.13179687 16.02320313 48.26359375 16.03515625 49.4296875 C16.04453454 50.91145669 16.0536347 52.39322765 16.0625 53.875 C16.07087891 54.62136719 16.07925781 55.36773437 16.08789062 56.13671875 C16.11328125 61.7734375 16.11328125 61.7734375 15 64 C4.77 64 -5.46 64 -16 64 C-16 63.67 -16 63.34 -16 63 C-11.05 63 -6.1 63 -1 63 C-2.03125 61.411875 -3.0625 59.82375 -4.125 58.1875 C-7.18944501 53.38344075 -9.96004312 48.48445684 -12.64453125 43.4609375 C-14.27141352 40.50723193 -16.06243959 37.7572975 -18 35 C-16.65018353 31.96291295 -15.16083261 29.96258753 -12.75 27.6875 C-9.25449813 24.30191957 -6.12222532 20.73144002 -3 17 C-7.29 16.67 -11.58 16.34 -16 16 C-16 15.67 -16 15.34 -16 15 C-11.05 15 -6.1 15 -1 15 C-0.67 10.05 -0.34 5.1 0 0 Z " fill="#E10F7E" transform="translate(369,110)"/>
<path d="M0 0 C3.3 0 6.6 0 10 0 C13 3 13 3 13.36076355 5.10710144 C13.35410172 5.91762466 13.34743988 6.72814789 13.34057617 7.56323242 C13.34034958 8.48396042 13.34012299 9.40468842 13.33988953 10.35331726 C13.32440567 11.34402725 13.30892181 12.33473724 13.29296875 13.35546875 C13.28872391 14.37224197 13.28447906 15.3890152 13.28010559 16.43659973 C13.26329997 19.68716812 13.22564382 22.9371187 13.1875 26.1875 C13.17245562 28.38996501 13.15876679 30.59243973 13.14648438 32.79492188 C13.11339019 38.19685298 13.06159448 43.59832171 13 49 C8.71 49 4.42 49 0 49 C0 32.83 0 16.66 0 0 Z " fill="#FDEAF4" transform="translate(415,124)"/>
<path d="M0 0 C5.37009266 2.17360893 8.77884637 5.2596498 12 10 C12 10.66 12 11.32 12 12 C12.66 12 13.32 12 14 12 C14.66 14.64 15.32 17.28 16 20 C17.32 19.34 18.64 18.68 20 18 C19.67 20.31 19.34 22.62 19 25 C19.99 25 20.98 25 22 25 C21.125 30.75 21.125 30.75 20 33 C21.98 32.505 21.98 32.505 24 32 C23.45276317 35.37462715 22.9451 37.08235 21 40 C21.99 40 22.98 40 24 40 C24 40.66 24 41.32 24 42 C22.37373596 43.38232443 20.7074998 44.71937515 19 46 C20.485 46.495 20.485 46.495 22 47 C21.43056986 50.30269479 20.59070637 51.87191977 18 54 C17.154375 54.495 16.30875 54.99 15.4375 55.5 C12.75281489 56.91804659 12.75281489 56.91804659 11 60 C10.01 59.67 9.02 59.34 8 59 C8.226875 58.113125 8.45375 57.22625 8.6875 56.3125 C9.05974996 52.36665041 8.16350702 51.2019904 6 48 C6 47.01 6 46.02 6 45 C6.99 45 7.98 45 9 45 C8.67 42.69 8.34 40.38 8 38 C8.99 37.505 8.99 37.505 10 37 C9.67 36.67 9.34 36.34 9 36 C8.95919217 34.00041636 8.95745644 31.99954746 9 30 C9.99 30.33 10.98 30.66 12 31 C11.34 29.02 10.68 27.04 10 25 C9.34 25 8.68 25 8 25 C8.33 24.34 8.66 23.68 9 23 C10.32 23.66 11.64 24.32 13 25 C13 24.01 13 23.02 13 22 C12.01 22.33 11.02 22.66 10 23 C8 22 8 22 7 19 C6.34 18.67 5.68 18.34 5 18 C4.67 17.01 4.34 16.02 4 15 C3.484375 14.484375 2.96875 13.96875 2.4375 13.4375 C1.963125 12.963125 1.48875 12.48875 1 12 C1 11.34 1 10.68 1 10 C0.34 10 -0.32 10 -1 10 C-1.66 8.68 -2.32 7.36 -3 6 C-1.35 6 0.3 6 2 6 C1.34 5.01 0.68 4.02 0 3 C0 2.01 0 1.02 0 0 Z " fill="#F9C4E3" transform="translate(147,101)"/>
<path d="M0 0 C0.99 0.33 1.98 0.66 3 1 C2.01 3.64 1.02 6.28 0 9 C3.96 9 7.92 9 12 9 C12 8.34 12 7.68 12 7 C15.64812473 4.66520017 18.74187788 4.61981053 23 5 C25.4375 6.5 25.4375 6.5 27 8 C26.75 9.875 26.75 9.875 26 12 C22.86008278 14.01332655 19.91058774 14.38100585 16.25 14.8125 C9.44211074 15.87649246 4.5909843 17.99111501 0.0625 23.25 C-1.42554063 27.10139927 -1.74097327 30.90023213 -2 35 C-2.66 35 -3.32 35 -4 35 C-4 36.65 -4 38.3 -4 40 C-4.66 40 -5.32 40 -6 40 C-6.33 41.32 -6.66 42.64 -7 44 C-7 33.44 -7 22.88 -7 12 C-6.34 12 -5.68 12 -5 12 C-4.731875 10.865625 -4.46375 9.73125 -4.1875 8.5625 C-3.795625 7.386875 -3.40375 6.21125 -3 5 C-2.01 4.67 -1.02 4.34 0 4 C0 2.68 0 1.36 0 0 Z " fill="#E51081" transform="translate(281,128)"/>
<path d="M0 0 C0.33 0 0.66 0 1 0 C1.33 14.85 1.66 29.7 2 45 C2.66 45 3.32 45 4 45 C4 46.32 4 47.64 4 49 C4.66 49 5.32 49 6 49 C7.25664978 51.90600261 8 53.79604584 8 57 C8.66 57 9.32 57 10 57 C10 57.66 10 58.32 10 59 C10.66 59 11.32 59 12 59 C12 59.66 12 60.32 12 61 C12.66 61 13.32 61 14 61 C14 61.66 14 62.32 14 63 C14.66 63 15.32 63 16 63 C16 63.66 16 64.32 16 65 C16.66 65 17.32 65 18 65 C18.33 65.99 18.66 66.98 19 68 C17.68 69.32 16.36 70.64 15 72 C14.505 71.01 14.505 71.01 14 70 C12.02 70.495 12.02 70.495 10 71 C10 70.34 10 69.68 10 69 C9.071875 68.62875 9.071875 68.62875 8.125 68.25 C5.64931313 66.79371361 5.04874998 65.62187494 4 63 C3.34 63 2.68 63 2 63 C-2.88514244 53.87866392 -4.75044255 47.32761102 -3 37 C-2.505 36.505 -2.505 36.505 -2 36 C-1.85373922 34.19228466 -1.77256933 32.37923013 -1.71875 30.56640625 C-1.68136719 29.44169922 -1.64398438 28.31699219 -1.60546875 27.15820312 C-1.57066406 25.97162109 -1.53585938 24.78503906 -1.5 23.5625 C-1.26143213 15.66767066 -0.92287143 7.84776714 0 0 Z " fill="#AFC00E" transform="translate(82,103)"/>
<path d="M0 0 C-0.54611863 3.82283043 -2.23818615 5.41079952 -5 8 C-5.33 8.66 -5.66 9.32 -6 10 C-6.66 10 -7.32 10 -8 10 C-8.28875 10.9075 -8.5775 11.815 -8.875 12.75 C-9.76531776 15.32202908 -10.71494413 17.61346766 -12 20 C-12.66 20 -13.32 20 -14 20 C-14 21.65 -14 23.3 -14 25 C-14.33 25 -14.66 25 -15 25 C-15.08756305 28.70818297 -15.14058015 32.41609763 -15.1875 36.125 C-15.21263672 37.17171875 -15.23777344 38.2184375 -15.26367188 39.296875 C-15.31873867 45.09724398 -15.02813794 48.89746835 -12 54 C-12 55.32 -12 56.64 -12 58 C-11.34 58 -10.68 58 -10 58 C-10 58.66 -10 59.32 -10 60 C-9.34 60 -8.68 60 -8 60 C-8 61.32 -8 62.64 -8 64 C-8.66 64 -9.32 64 -10 64 C-10 63.34 -10 62.68 -10 62 C-10.66 62 -11.32 62 -12 62 C-16 55.375 -16 55.375 -16 52 C-16.66 52 -17.32 52 -18 52 C-18 50.02 -18 48.04 -18 46 C-18.66 46 -19.32 46 -20 46 C-20.08820927 42.83351345 -20.1407905 39.66734908 -20.1875 36.5 C-20.22520508 35.1696875 -20.22520508 35.1696875 -20.26367188 33.8125 C-20.33894565 26.98767771 -19.06570064 22.13140128 -16 16 C-15.34 16 -14.68 16 -14 16 C-14 14.68 -14 13.36 -14 12 C-13.34 12 -12.68 12 -12 12 C-12 11.34 -12 10.68 -12 10 C-11.34 10 -10.68 10 -10 10 C-10 9.34 -10 8.68 -10 8 C-9.34 8 -8.68 8 -8 8 C-8 7.01 -8 6.02 -8 5 C-3.69767442 0 -3.69767442 0 0 0 Z " fill="#B7A125" transform="translate(138,102)"/>
<path d="M0 0 C0.6271777 7.99651568 0.6271777 7.99651568 -1.875 12 C-4.69635947 14.65539715 -6.22476988 15.15280119 -10 15.1875 C-11.051875 15.20876953 -11.051875 15.20876953 -12.125 15.23046875 C-14 15 -14 15 -16 13 C-16.375 9.5625 -16.375 9.5625 -16 6 C-13.11151862 3.19945833 -10.16166393 2.28378436 -6.3125 1.3125 C-5.33925781 1.06113281 -4.36601562 0.80976563 -3.36328125 0.55078125 C-1 0 -1 0 0 0 Z " fill="#A1B719" transform="translate(308,148)"/>
<path d="M0 0 C2.375 1.625 2.375 1.625 4 4 C4.61195145 7.6717087 4.48706506 9.28813568 2.375 12.375 C0 14 0 14 -3 14.5625 C-6 14 -6 14 -8.375 11.8125 C-10.14232156 8.75367423 -10.70698088 7.44653179 -10 4 C-7.16979976 -0.02759265 -4.82432618 -0.80405436 0 0 Z " fill="#FDEDF7" transform="translate(107,177)"/>
<path d="M0 0 C2.4375 1.5625 2.4375 1.5625 4 4 C4 7.82389746 3.85254277 10.05611336 1.25 12.9375 C-1.49491218 14.23370853 -3.00074212 14.52487013 -6 14 C-8.3125 12.375 -8.3125 12.375 -10 10 C-10.61195145 6.3282913 -10.48706506 4.71186432 -8.375 1.625 C-5.28813568 -0.48706506 -3.6717087 -0.61195145 0 0 Z " fill="#FDEEF8" transform="translate(147,177)"/>
<path d="M0 0 C1.62566606 0.47690204 3.25051311 0.95659666 4.875 1.4375 C5.77992187 1.70433594 6.68484375 1.97117188 7.6171875 2.24609375 C10 3 10 3 12 4 C13.5195764 4.15123831 15.04472502 4.24881693 16.5703125 4.31640625 C17.91416016 4.37924805 17.91416016 4.37924805 19.28515625 4.44335938 C20.22230469 4.48267578 21.15945312 4.52199219 22.125 4.5625 C23.06988281 4.60568359 24.01476562 4.64886719 24.98828125 4.69335938 C27.32537092 4.79959072 29.6625683 4.90163176 32 5 C31.67 5.99 31.34 6.98 31 8 C26.38 8 21.76 8 17 8 C17 9.98 17 11.96 17 14 C19.64 14 22.28 14 25 14 C25 14.33 25 14.66 25 15 C22.03 15 19.06 15 16 15 C16 14.34 16 13.68 16 13 C15.34 13 14.68 13 14 13 C12.98133771 11.34467377 11.98189187 9.67739862 11 8 C7.93466836 6.46733418 4.73245728 6.89723529 1.375 6.9375 C0.31539063 6.94426758 0.31539063 6.94426758 -0.765625 6.95117188 C-2.51045275 6.96296125 -4.255237 6.98089676 -6 7 C-6 6.01 -6 5.02 -6 4 C-5.01 3.67 -4.02 3.34 -3 3 C-2.67 3.66 -2.34 4.32 -2 5 C-1.34 3.35 -0.68 1.7 0 0 Z " fill="#BCA925" transform="translate(100,169)"/>
<path d="M0 0 C0.33 0 0.66 0 1 0 C1.02505615 1.18964355 1.0501123 2.37928711 1.07592773 3.60498047 C1.17078538 8.05933639 1.270808 12.51356448 1.37231445 16.96777344 C1.41536936 18.88799021 1.45706223 20.80823806 1.49731445 22.72851562 C1.55573814 25.50400116 1.61921644 28.27933441 1.68359375 31.0546875 C1.70030624 31.8998996 1.71701874 32.74511169 1.73423767 33.61593628 C1.85936946 38.76102924 2.26969493 43.77054846 2.98768616 48.86917114 C3 51 3 51 1 54 C0.34 54 -0.32 54 -1 54 C-1 52.02 -1 50.04 -1 48 C-1.66 48 -2.32 48 -3 48 C-3.02687279 46.18757948 -3.04633715 44.37504767 -3.0625 42.5625 C-3.07410156 41.55316406 -3.08570312 40.54382813 -3.09765625 39.50390625 C-3 37 -3 37 -2 36 C-1.85373922 34.19228466 -1.77256933 32.37923013 -1.71875 30.56640625 C-1.68136719 29.44169922 -1.64398438 28.31699219 -1.60546875 27.15820312 C-1.57066406 25.97162109 -1.53585938 24.78503906 -1.5 23.5625 C-1.26143213 15.66767066 -0.92287143 7.84776714 0 0 Z " fill="#A3CC01" transform="translate(82,103)"/>
<path d="M0 0 C0 0.66 0 1.32 0 2 C-1.62626404 3.38232443 -3.2925002 4.71937515 -5 6 C-4.01 6.33 -3.02 6.66 -2 7 C-2.56943014 10.30269479 -3.40929363 11.87191977 -6 14 C-6.845625 14.495 -7.69125 14.99 -8.5625 15.5 C-11.24718511 16.91804659 -11.24718511 16.91804659 -13 20 C-13.99 19.67 -14.98 19.34 -16 19 C-15.773125 18.113125 -15.54625 17.22625 -15.3125 16.3125 C-14.94025004 12.36665041 -15.83649298 11.2019904 -18 8 C-18 7.01 -18 6.02 -18 5 C-14.20411134 5.54226981 -12.52788007 7.20127563 -10 10 C-9.82984375 9.44570312 -9.6596875 8.89140625 -9.484375 8.3203125 C-7.49406176 2.37054632 -7.49406176 2.37054632 -5 0.5 C-3 0 -3 0 0 0 Z " fill="#FEEEF9" transform="translate(171,141)"/>
<path d="M0 0 C2.1875 0.3125 2.1875 0.3125 4 1 C4 1.66 4 2.32 4 3 C3.34 3 2.68 3 2 3 C2 3.66 2 4.32 2 5 C1.34 5 0.68 5 0 5 C-0.144375 5.61875 -0.28875 6.2375 -0.4375 6.875 C-1 9 -1 9 -2 11 C-6.95 10.67 -11.9 10.34 -17 10 C-18 7 -18 7 -17 4 C-16.02417969 3.96261719 -15.04835938 3.92523438 -14.04296875 3.88671875 C-12.13451172 3.78810547 -12.13451172 3.78810547 -10.1875 3.6875 C-8.29064453 3.60048828 -8.29064453 3.60048828 -6.35546875 3.51171875 C-2.86490339 2.97939737 -2.14867399 2.60102641 0 0 Z " fill="#AAC805" transform="translate(134,173)"/>
<path d="M0 0 C2.60078014 0.03859605 5.15696799 0.1458703 7.75 0.3125 C8.46671875 0.34794922 9.1834375 0.38339844 9.921875 0.41992188 C14.00131787 0.67113757 17.29978323 1.26870591 21 3 C22.32676508 3.35858516 23.65835921 3.7018576 25 4 C25 4.66 25 5.32 25 6 C14.77 6 4.54 6 -6 6 C-4 4 -2 2 0 0 Z " fill="#E6037D" transform="translate(114,186)"/>
<path d="M0 0 C8.23602484 -0.48447205 8.23602484 -0.48447205 11.5625 1.625 C13 4 13 4 13 10 C8.71 10 4.42 10 0 10 C0 6.7 0 3.4 0 0 Z " fill="#FDE3EE" transform="translate(415,110)"/>
<path d="M0 0 C4.6603705 -0.36551926 7.95142865 -0.62058305 12.0625 1.8125 C14 4 14 4 14 7 C14.66 7 15.32 7 16 7 C16 7.66 16 8.32 16 9 C21.28 9 26.56 9 32 9 C32.33 8.01 32.66 7.02 33 6 C33.495 7.98 33.495 7.98 34 10 C30.17912571 11.91043715 25.08352349 11.2470427 20.828125 11.25390625 C14.75679978 11.44363516 12.39571949 12.87167591 8 17 C4.625 17.3125 4.625 17.3125 2 17 C2 16.67 2 16.34 2 16 C2.94875 15.71125 3.8975 15.4225 4.875 15.125 C8.05211578 14.23174891 8.05211578 14.23174891 10 12 C10.32378803 8.95639252 10.51045744 6.87078033 8.9375 4.1875 C6.09072753 2.44270397 3.28153235 2.30957852 0 2 C0 1.34 0 0.68 0 0 Z " fill="#D8396F" transform="translate(100,175)"/>
<path d="M0 0 C0 16.17 0 32.34 0 49 C4.29 49 8.58 49 13 49 C13 49.33 13 49.66 13 50 C2.81639123 50.93891428 -6.81639123 50.93891428 -17 50 C-17 49.67 -17 49.34 -17 49 C-12.05 49 -7.1 49 -2 49 C-3.32 47.02 -4.64 45.04 -6 43 C-6 42.34 -6 41.68 -6 41 C-5.01 41 -4.02 41 -3 41 C-2.67 41.99 -2.34 42.98 -2 44 C-1.67 30.8 -1.34 17.6 -1 4 C-4.31544299 2.89485234 -7.20410111 2.67892369 -10.6875 2.4375 C-11.86699219 2.35371094 -13.04648437 2.26992187 -14.26171875 2.18359375 C-15.16535156 2.12300781 -16.06898438 2.06242187 -17 2 C-17 1.67 -17 1.34 -17 1 C-14.3541898 0.832959 -11.70835369 0.66634934 -9.0625 0.5 C-8.30775391 0.45230469 -7.55300781 0.40460938 -6.77539062 0.35546875 C-1.11328125 0 -1.11328125 0 0 0 Z " fill="#D81D79" transform="translate(415,124)"/>
<path d="M0 0 C2.31 0 4.62 0 7 0 C9 2 9 2 9.125 4.375 C9.08375 5.24125 9.0425 6.1075 9 7 C9 10.11257569 9.17361624 12.10765685 10 15 C9.01 15 8.02 15 7 15 C6.34 13.02 5.68 11.04 5 9 C4.34 9 3.68 9 3 9 C3 10.98 3 12.96 3 15 C2.01 15 1.02 15 0 15 C0 10.05 0 5.1 0 0 Z " fill="#FEEAF6" transform="translate(326,89)"/>
<path d="M0 0 C7 0 7 0 10 2 C10.3125 5 10.3125 5 10 8 C8 10 8 10 5.375 10.125 C4.59125 10.08375 3.8075 10.0425 3 10 C3 11.65 3 13.3 3 15 C2.01 15 1.02 15 0 15 C0 10.05 0 5.1 0 0 Z " fill="#FED2EB" transform="translate(283,89)"/>
<path d="M0 0 C2.12038635 2.61514317 4.13091744 5.19637616 6 8 C6.99 8.33 7.98 8.66 9 9 C9.28875 8.401875 9.5775 7.80375 9.875 7.1875 C11 5 11 5 13 2 C13.66 2 14.32 2 15 2 C14.690625 2.598125 14.38125 3.19625 14.0625 3.8125 C12.89790296 6.08956772 12.89790296 6.08956772 12 9 C11.360625 9.2475 10.72125 9.495 10.0625 9.75 C6.87209296 11.68358002 6.88603999 14.51912862 6 18 C5.34 18.33 4.68 18.66 4 19 C-0.12989477 14.73688282 -0.61271765 11.71241466 -1 6 C-0.34 5.67 0.32 5.34 1 5 C0.67 3.35 0.34 1.7 0 0 Z " fill="#E47BAD" transform="translate(156,133)"/>
<path d="M0 0 C0.99 0.33 1.98 0.66 3 1 C3.02700675 3.91672884 3.04684237 6.83320677 3.0625 9.75 C3.07087891 10.575 3.07925781 11.4 3.08789062 12.25 C3.09111328 13.04921875 3.09433594 13.8484375 3.09765625 14.671875 C3.10289307 15.4050293 3.10812988 16.13818359 3.11352539 16.89355469 C3 19 3 19 2.50219727 20.99023438 C1.94446724 23.22223902 1.87057255 25.18544273 1.8671875 27.484375 C1.86589844 28.33773437 1.86460938 29.19109375 1.86328125 30.0703125 C1.86714844 30.95460937 1.87101562 31.83890625 1.875 32.75 C1.87113281 33.61882812 1.86726563 34.48765625 1.86328125 35.3828125 C1.87123343 40.67896248 2.23219632 45.75943517 3 51 C2.67 49.68 2.34 48.36 2 47 C1.34 47 0.68 47 0 47 C0 31.49 0 15.98 0 0 Z " fill="#DB4666" transform="translate(84,101)"/>
<path d="M0 0 C0.99 0 1.98 0 3 0 C3 3.96 3 7.92 3 12 C4.65 12 6.3 12 8 12 C8 8.04 8 4.08 8 0 C8.99 0 9.98 0 11 0 C11.08107583 1.93681161 11.13922475 3.8745934 11.1875 5.8125 C11.22230469 6.89144531 11.25710938 7.97039062 11.29296875 9.08203125 C11 12 11 12 9.71484375 13.8984375 C8 15 8 15 4.375 14.8125 C3.26125 14.544375 2.1475 14.27625 1 14 C-0.38226016 11.23547967 -0.09525387 8.9538637 -0.0625 5.875 C-0.05347656 4.77929688 -0.04445313 3.68359375 -0.03515625 2.5546875 C-0.02355469 1.71164063 -0.01195312 0.86859375 0 0 Z " fill="#FDCAE2" transform="translate(304,89)"/>
<path d="M0 0 C0.33 0 0.66 0 1 0 C1.03738281 1.30195313 1.07476562 2.60390625 1.11328125 3.9453125 C1.17896674 5.67190257 1.24541318 7.39846381 1.3125 9.125 C1.33505859 9.9809375 1.35761719 10.836875 1.38085938 11.71875 C1.60186107 16.94242648 2.42788357 20.35226146 5 25 C5 26.32 5 27.64 5 29 C5.66 29 6.32 29 7 29 C7 29.66 7 30.32 7 31 C7.66 31 8.32 31 9 31 C9 32.32 9 33.64 9 35 C8.34 35 7.68 35 7 35 C7 34.34 7 33.68 7 33 C6.34 33 5.68 33 5 33 C1 26.375 1 26.375 1 23 C0.34 23 -0.32 23 -1 23 C-1 21.02 -1 19.04 -1 17 C-1.66 17 -2.32 17 -3 17 C-3 14.36 -3 11.72 -3 9 C-2.67 9 -2.34 9 -2 9 C-1.34 6.03 -0.68 3.06 0 0 Z " fill="#BF8C37" transform="translate(121,131)"/>
<path d="M0 0 C0.66 0 1.32 0 2 0 C2.4025937 3.52269485 2.13372795 4.79940808 0.125 7.8125 C-0.57625 8.534375 -1.2775 9.25625 -2 10 C-2.66 10 -3.32 10 -4 10 C-4.33 11.32 -4.66 12.64 -5 14 C-7.97 14 -10.94 14 -14 14 C-14 13.34 -14 12.68 -14 12 C-13.34 12 -12.68 12 -12 12 C-12 11.34 -12 10.68 -12 10 C-6.58823529 6 -6.58823529 6 -4 6 C-4 5.34 -4 4.68 -4 4 C-3.34 4 -2.68 4 -2 4 C-2 3.34 -2 2.68 -2 2 C-1.34 2 -0.68 2 0 2 C0 1.34 0 0.68 0 0 Z " fill="#B6A91C" transform="translate(154,160)"/>
<path d="M0 0 C0.99 0.33 1.98 0.66 3 1 C4.16796875 3.43359375 4.16796875 3.43359375 5.1875 6.4375 C5.53167969 7.42621094 5.87585938 8.41492188 6.23046875 9.43359375 C7 12 7 12 7 14 C6.01 14 5.02 14 4 14 C4 13.01 4 12.02 4 11 C2.02 11 0.04 11 -2 11 C-2 11.99 -2 12.98 -2 14 C-2.99 14 -3.98 14 -5 14 C-4.54857225 12.22739369 -4.08859477 10.4569632 -3.625 8.6875 C-3.36976563 7.70136719 -3.11453125 6.71523437 -2.8515625 5.69921875 C-2 3 -2 3 0 0 Z " fill="#F5BFD8" transform="translate(251,90)"/>
<path d="M0 0 C6.93 0 13.86 0 21 0 C20.67 0.66 20.34 1.32 20 2 C17.4375 2.625 17.4375 2.625 15 3 C15 3.33 15 3.66 15 4 C10.05 4 5.1 4 0 4 C0 2.68 0 1.36 0 0 Z " fill="#A4CB00" transform="translate(61,101)"/>
<path d="M0 0 C0 0.66 0 1.32 0 2 C0.66 2 1.32 2 2 2 C2.33 2.99 2.66 3.98 3 5 C1.68 6.32 0.36 7.64 -1 9 C-1.33 8.34 -1.66 7.68 -2 7 C-3.32 7.33 -4.64 7.66 -6 8 C-6 7.34 -6 6.68 -6 6 C-6.66 5.67 -7.32 5.34 -8 5 C-8 3.33333333 -8 1.66666667 -8 0 C-5.13822943 -1.43088528 -3.06624227 -0.59991697 0 0 Z " fill="#AFC20A" transform="translate(98,166)"/>
<path d="M0 0 C5 1 5 1 6.8125 2.9375 C8 5 8 5 8 7 C7.34 7 6.68 7 6 7 C5.67 6.01 5.34 5.02 5 4 C4.01 3.67 3.02 3.34 2 3 C2.01160156 4.14339844 2.02320313 5.28679687 2.03515625 6.46484375 C2.04453288 7.95572754 2.05363321 9.44661309 2.0625 10.9375 C2.07087891 11.69224609 2.07925781 12.44699219 2.08789062 13.22460938 C2.09652441 15.14994313 2.05224333 17.07535581 2 19 C1 20 1 20 -1.94140625 20.09765625 C-3.13636719 20.08605469 -4.33132813 20.07445312 -5.5625 20.0625 C-7.35880859 20.04896484 -7.35880859 20.04896484 -9.19140625 20.03515625 C-10.11824219 20.02355469 -11.04507812 20.01195312 -12 20 C-12 19.67 -12 19.34 -12 19 C-8.04 19 -4.08 19 0 19 C0 12.73 0 6.46 0 0 Z " fill="#E13E8C" transform="translate(383,153)"/>
<path d="M0 0 C1.5 1.375 1.5 1.375 3 3 C3 3.66 3 4.32 3 5 C3.66 5 4.32 5 5 5 C5 8.3 5 11.6 5 15 C1 16 1 16 -1 15 C-1.72159424 13.35636866 -2.39351421 11.68949614 -3 10 C-0.525 10.495 -0.525 10.495 2 11 C1.484375 10.29875 0.96875 9.5975 0.4375 8.875 C-1.30443767 5.39112465 -0.94693195 3.7016431 0 0 Z " fill="#FDDDF1" transform="translate(156,108)"/>
<path d="M0 0 C2.03833424 1.2739589 4.03852126 2.61061923 6 4 C6 4.66 6 5.32 6 6 C7.11375 5.34 8.2275 4.68 9.375 4 C12.75 2 12.75 2 15 2 C15 2.66 15 3.32 15 4 C14.34 4 13.68 4 13 4 C12.71125 4.598125 12.4225 5.19625 12.125 5.8125 C11 8 11 8 9 11 C6.75 11 6.75 11 4 10 C1.94304343 7.00985547 0 3.686098 0 0 Z " fill="#FDDDF3" transform="translate(156,131)"/>
<path d="M0 0 C0.99 0.495 0.99 0.495 2 1 C2.01981934 1.62567871 2.03963867 2.25135742 2.06005859 2.89599609 C2.15514226 5.72276519 2.26488746 8.54877815 2.375 11.375 C2.4059375 12.35984375 2.436875 13.3446875 2.46875 14.359375 C2.50742187 15.30039063 2.54609375 16.24140625 2.5859375 17.2109375 C2.6173584 18.08024902 2.6487793 18.94956055 2.68115234 19.84521484 C2.81229433 22.20961794 2.81229433 22.20961794 5 24 C3.35 25.32 1.7 26.64 0 28 C0 18.76 0 9.52 0 0 Z " fill="#D83181" transform="translate(383,114)"/>
<path d="M0 0 C2.64 0 5.28 0 8 0 C8.33 1.65 8.66 3.3 9 5 C8.01 5 7.02 5 6 5 C6 6.98 6 8.96 6 11 C5.01 11 4.02 11 3 11 C3 8.69 3 6.38 3 4 C2.01 4 1.02 4 0 4 C0 2.68 0 1.36 0 0 Z " fill="#D71876" transform="translate(328,183)"/>
<path d="M0 0 C0.33 0.99 0.66 1.98 1 3 C-0.1796875 4.75390625 -0.1796875 4.75390625 -1.875 6.5625 C-4.22310453 9.08137361 -4.22310453 9.08137361 -6 12 C-6.66 12 -7.32 12 -8 12 C-8.33 12.99 -8.66 13.98 -9 15 C-9.66 15 -10.32 15 -11 15 C-10.649375 15.763125 -10.29875 16.52625 -9.9375 17.3125 C-9 20 -9 20 -10 23 C-11.32 21.02 -12.64 19.04 -14 17 C-12.53417985 13.57719483 -10.61937745 11.43519517 -7.9375 8.875 C-5.08428067 6.22095 -5.08428067 6.22095 -3 3 C-2.34 3 -1.68 3 -1 3 C-0.67 2.01 -0.34 1.02 0 0 Z " fill="#E51D86" transform="translate(410,128)"/>
<path d="M0 0 C0 3 0 3 -1.5625 5.0625 C-8.33894533 10.44890526 -16.78299982 9.20514009 -25 9 C-25 8.34 -25 7.68 -25 7 C-24.01 6.97421875 -23.02 6.9484375 -22 6.921875 C-13.61610711 6.60035626 -6.2848181 6.2848181 0 0 Z " fill="#DD3E8F" transform="translate(219,166)"/>
<path d="M0 0 C0.86625 1.11375 0.86625 1.11375 1.75 2.25 C3.72253526 4.66087643 5.76044282 6.84042701 8 9 C8 8.34 8 7.68 8 7 C10.90600261 5.74335022 12.79604584 5 16 5 C13.90176742 7.25365722 12.03245764 8.98067998 9.375 10.5625 C6.74256396 11.92617739 6.74256396 11.92617739 5 15 C4.01 14.67 3.02 14.34 2 14 C2.226875 13.113125 2.45375 12.22625 2.6875 11.3125 C3.05974996 7.36665041 2.16350702 6.2019904 0 3 C0 2.01 0 1.02 0 0 Z " fill="#F6ADD2" transform="translate(153,146)"/>
<path d="M0 0 C0.33 0 0.66 0 1 0 C1.66 7.26 2.32 14.52 3 22 C2.34 22 1.68 22 1 22 C0.16151196 20.54462432 -0.67063934 19.08559627 -1.5 17.625 C-1.9640625 16.81289062 -2.428125 16.00078125 -2.90625 15.1640625 C-4 13 -4 13 -4 11 C-4.66 11 -5.32 11 -6 11 C-5.67 10.34 -5.34 9.68 -5 9 C-3.68 9.66 -2.36 10.32 -1 11 C-0.67 7.37 -0.34 3.74 0 0 Z " fill="#E17BA8" transform="translate(161,115)"/>
<path d="M0 0 C2.31 0 4.62 0 7 0 C9 2 9 2 9 6 C7.02 6.33 5.04 6.66 3 7 C3 5.35 3 3.7 3 2 C2.34 1.67 1.68 1.34 1 1 C1 5.29 1 9.58 1 14 C1.66 14.33 2.32 14.66 3 15 C2.01 15 1.02 15 0 15 C0 10.05 0 5.1 0 0 Z " fill="#F6A0CC" transform="translate(326,89)"/>
<path d="M0 0 C3 1 3 1 5 3 C5.66 2.01 6.32 1.02 7 0 C7.66 0 8.32 0 9 0 C9 2.97 9 5.94 9 9 C8.34 9 7.68 9 7 9 C6.67 8.01 6.34 7.02 6 6 C5.01 6 4.02 6 3 6 C2.67 6.99 2.34 7.98 2 9 C1.34 9 0.68 9 0 9 C0 6.03 0 3.06 0 0 Z " fill="#FABDDF" transform="translate(306,185)"/>
<path d="M0 0 C1.98 0 3.96 0 6 0 C6 2.64 6 5.28 6 8 C4.35 8 2.7 8 1 8 C0.67 8.99 0.34 9.98 0 11 C0 7.37 0 3.74 0 0 Z " fill="#E973AE" transform="translate(362,183)"/>
<path d="M0 0 C0.99 0 1.98 0 3 0 C3 4.62 3 9.24 3 14 C1.02 14.33 -0.96 14.66 -3 15 C-2.67 14.01 -2.34 13.02 -2 12 C-1.34 12 -0.68 12 0 12 C0 8.04 0 4.08 0 0 Z " fill="#FBCCE4" transform="translate(232,89)"/>
<path d="M0 0 C0.33 0.66 0.66 1.32 1 2 C1.66 2 2.32 2 3 2 C3.05447047 3.41623216 3.09300508 4.83308191 3.125 6.25 C3.14820313 7.03890625 3.17140625 7.8278125 3.1953125 8.640625 C2.97831155 11.26199647 2.42779667 12.80042134 1 15 C-1.625 16.25 -1.625 16.25 -4 17 C-2.68 14.69 -1.36 12.38 0 10 C-1.32 9.67 -2.64 9.34 -4 9 C-2.71034824 7.62437146 -1.37310707 6.29233607 0 5 C0.66 5 1.32 5 2 5 C2 4.34 2 3.68 2 3 C1.01 3 0.02 3 -1 3 C-0.67 2.01 -0.34 1.02 0 0 Z " fill="#E4328D" transform="translate(169,138)"/>
<path d="M0 0 C2.45823172 3.68734758 3.01242616 6.69699971 4 11 C2.35 11 0.7 11 -1 11 C-0.34 10.67 0.32 10.34 1 10 C1 8.02 1 6.04 1 4 C-2.11785113 4.64644661 -2.11785113 4.64644661 -3 7 C-5.0625 7.625 -5.0625 7.625 -7 8 C-6.62952882 5.25851328 -6.31412056 3.41406801 -4.625 1.1875 C-3 0 -3 0 0 0 Z " fill="#D34E5E" transform="translate(145,96)"/>
<path d="M0 0 C0 2.31 0 4.62 0 7 C-3.75 8.125 -3.75 8.125 -6 7 C-6 4.69 -6 2.38 -6 0 C-3.50907189 -1.24546405 -2.58919267 -0.7767578 0 0 Z " fill="#F496C9" transform="translate(347,186)"/>
<path d="M0 0 C5.61 0 11.22 0 17 0 C16.67 0.99 16.34 1.98 16 3 C11.05 3 6.1 3 1 3 C0.67 2.01 0.34 1.02 0 0 Z " fill="#C29137" transform="translate(115,174)"/>
<path d="M0 0 C0.33 1.32 0.66 2.64 1 4 C4.96 4 8.92 4 13 4 C13 3.34 13 2.68 13 2 C13.66 2 14.32 2 15 2 C15 3.65 15 5.3 15 7 C17.64 7.33 20.28 7.66 23 8 C23 8.33 23 8.66 23 9 C19.37 9.33 15.74 9.66 12 10 C12 8.68 12 7.36 12 6 C8.04 5.67 4.08 5.34 0 5 C0 3.35 0 1.7 0 0 Z " fill="#DB217D" transform="translate(280,133)"/>
<path d="M0 0 C1.67542976 0.28604898 3.34385343 0.61781233 5 1 C5.33 3.64 5.66 6.28 6 9 C5.01 8.67 4.02 8.34 3 8 C3 7.34 3 6.68 3 6 C2.34 6 1.68 6 1 6 C1 6.99 1 7.98 1 9 C0.34 9 -0.32 9 -1 9 C-1.09765625 2.84765625 -1.09765625 2.84765625 -1 1 C-0.67 0.67 -0.34 0.34 0 0 Z " fill="#EE91BF" transform="translate(294,185)"/>
<path d="M0 0 C2.875 -0.1875 2.875 -0.1875 6 0 C8.29013653 3.4352048 8.17842973 4.985331 8 9 C10.64 9 13.28 9 16 9 C16 9.33 16 9.66 16 10 C13.03 10 10.06 10 7 10 C7 9.34 7 8.68 7 8 C6.34 8 5.68 8 5 8 C3.98133771 6.34467377 2.98189187 4.67739862 2 3 C1.34 2.67 0.68 2.34 0 2 C0 1.34 0 0.68 0 0 Z " fill="#B6BB16" transform="translate(109,174)"/>
<path d="M0 0 C0 7.92 0 15.84 0 24 C-0.33 24 -0.66 24 -1 24 C-1 17.4 -1 10.8 -1 4 C-4.31544299 2.89485234 -7.20410111 2.67892369 -10.6875 2.4375 C-11.86699219 2.35371094 -13.04648437 2.26992187 -14.26171875 2.18359375 C-15.16535156 2.12300781 -16.06898438 2.06242187 -17 2 C-17 1.67 -17 1.34 -17 1 C-14.3541898 0.832959 -11.70835369 0.66634934 -9.0625 0.5 C-8.30775391 0.45230469 -7.55300781 0.40460938 -6.77539062 0.35546875 C-1.11328125 0 -1.11328125 0 0 0 Z " fill="#E03089" transform="translate(415,124)"/>
<path d="M0 0 C0.99 0 1.98 0 3 0 C3 4.95 3 9.9 3 15 C2.01 15 1.02 15 0 15 C0 10.05 0 5.1 0 0 Z " fill="#FBD0E8" transform="translate(269,89)"/>
<path d="M0 0 C1.98773749 2.98160623 2.41311144 4.56250985 3 8 C3.32483418 9.33542939 3.6550855 10.66961551 4 12 C2.02 12 0.04 12 -2 12 C-2.33 11.01 -2.66 10.02 -3 9 C-3.66 8.67 -4.32 8.34 -5 8 C-5 7.34 -5 6.68 -5 6 C-3.68 6.33 -2.36 6.66 -1 7 C-1.66 5.68 -2.32 4.36 -3 3 C-2.34 3 -1.68 3 -1 3 C-0.67 2.01 -0.34 1.02 0 0 Z " fill="#EA81B2" transform="translate(154,107)"/>
<path d="M0 0 C0.33 0 0.66 0 1 0 C1 6.6 1 13.2 1 20 C-0.65 19.67 -2.3 19.34 -4 19 C-3.67 18.34 -3.34 17.68 -3 17 C-7.29 16.67 -11.58 16.34 -16 16 C-16 15.67 -16 15.34 -16 15 C-11.05 15 -6.1 15 -1 15 C-0.67 10.05 -0.34 5.1 0 0 Z " fill="#EA2D90" transform="translate(369,110)"/>
<path d="M0 0 C0.99 0.495 0.99 0.495 2 1 C2 1.99 2 2.98 2 4 C2.66 4 3.32 4 4 4 C4 4.66 4 5.32 4 6 C4.66 6 5.32 6 6 6 C6 6.66 6 7.32 6 8 C6.66 8 7.32 8 8 8 C8 8.66 8 9.32 8 10 C5.36 10.33 2.72 10.66 0 11 C0 7.37 0 3.74 0 0 Z " fill="#B6AA1D" transform="translate(88,156)"/>
<path d="M0 0 C1.37562854 1.28965176 2.70766393 2.62689293 4 4 C4 4.66 4 5.32 4 6 C-0.95 6 -5.9 6 -11 6 C-11.33 4.68 -11.66 3.36 -12 2 C-11.34 2 -10.68 2 -10 2 C-10 2.66 -10 3.32 -10 4 C-6.7 3.67 -3.4 3.34 0 3 C0 2.01 0 1.02 0 0 Z " fill="#FEC0E3" transform="translate(409,167)"/>
<path d="M0 0 C0.66 0.33 1.32 0.66 2 1 C2 1.99 2 2.98 2 4 C3.32 4.33 4.64 4.66 6 5 C6.33 4.34 6.66 3.68 7 3 C7.33 4.65 7.66 6.3 8 8 C5.525 7.01 5.525 7.01 3 6 C3.33 6.33 3.66 6.66 4 7 C5.01965427 9.32481174 6.02059602 11.65794699 7 14 C6.01 13.67 5.02 13.34 4 13 C3.67 12.01 3.34 11.02 3 10 C2.34 9.67 1.68 9.34 1 9 C-1.21359223 3.6407767 -1.21359223 3.6407767 0 0 Z " fill="#E0599D" transform="translate(153,119)"/>
<path d="M0 0 C0.66 0 1.32 0 2 0 C2 2.97 2 5.94 2 9 C1.34 9 0.68 9 0 9 C-0.33 8.01 -0.66 7.02 -1 6 C-1.99 6 -2.98 6 -4 6 C-4.66 6.99 -5.32 7.98 -6 9 C-6 6.36 -6 3.72 -6 1 C-5.34 1 -4.68 1 -4 1 C-3.34 1.66 -2.68 2.32 -2 3 C-1.34 2.01 -0.68 1.02 0 0 Z " fill="#FECEEC" transform="translate(393,185)"/>
<path d="M0 0 C0.99 0.33 1.98 0.66 3 1 C4.16796875 3.43359375 4.16796875 3.43359375 5.1875 6.4375 C5.70376953 7.92056641 5.70376953 7.92056641 6.23046875 9.43359375 C7 12 7 12 7 14 C6.01 14 5.02 14 4 14 C3.67 13.01 3.34 12.02 3 11 C2.01 10.34 1.02 9.68 0 9 C0.99 9 1.98 9 3 9 C2.67 7.02 2.34 5.04 2 3 C1.34 3 0.68 3 0 3 C0 2.01 0 1.02 0 0 Z " fill="#FEE1F4" transform="translate(251,90)"/>
<path d="M0 0 C0.66 0 1.32 0 2 0 C2.3125 2.1875 2.3125 2.1875 2 5 C-0.5 7.8125 -0.5 7.8125 -3 10 C-3 9.01 -3 8.02 -3 7 C-4.32 7.33 -5.64 7.66 -7 8 C-6.67 7.34 -6.34 6.68 -6 6 C-5.34 6 -4.68 6 -4 6 C-4 5.34 -4 4.68 -4 4 C-3.34 4 -2.68 4 -2 4 C-2 3.34 -2 2.68 -2 2 C-1.34 2 -0.68 2 0 2 C0 1.34 0 0.68 0 0 Z " fill="#B9A621" transform="translate(154,160)"/>
<path d="M0 0 C1.48168945 1.11254883 1.48168945 1.11254883 3 3 C3.34057617 5.8190918 3.34057617 5.8190918 3.29296875 9.19921875 C3.28330078 10.40771484 3.27363281 11.61621094 3.26367188 12.86132812 C3.23853516 14.12396484 3.21339844 15.38660156 3.1875 16.6875 C3.16719727 18.59885742 3.16719727 18.59885742 3.14648438 20.54882812 C3.11108199 23.69964057 3.0616979 26.84961045 3 30 C2.67 30 2.34 30 2 30 C1.97494385 29.30438965 1.9498877 28.6087793 1.92407227 27.89208984 C1.80754026 24.71956545 1.68507432 21.54729645 1.5625 18.375 C1.52318359 17.28058594 1.48386719 16.18617188 1.44335938 15.05859375 C1.40146484 13.99511719 1.35957031 12.93164062 1.31640625 11.8359375 C1.27974854 10.86188965 1.24309082 9.8878418 1.20532227 8.88427734 C0.99106712 5.8745148 0.54068643 2.96704084 0 0 Z " fill="#FEE5F7" transform="translate(317,129)"/>
<path d="M0 0 C-0.33 6.27 -0.66 12.54 -1 19 C-1.33 19 -1.66 19 -2 19 C-3.32594359 13.03325384 -3.0884587 7.07416385 -3 1 C-1 0 -1 0 0 0 Z " fill="#A0C702" transform="translate(121,127)"/>
<path d="M0 0 C0.99 0 1.98 0 3 0 C3 3.96 3 7.92 3 12 C2.01 12 1.02 12 0 12 C0 8.04 0 4.08 0 0 Z " fill="#FDD6E8" transform="translate(304,89)"/>
<path d="M0 0 C0 0.66 0 1.32 0 2 C-1.62626404 3.38232443 -3.2925002 4.71937515 -5 6 C-4.34 6.66 -3.68 7.32 -3 8 C-4.65 8.33 -6.3 8.66 -8 9 C-9 6 -9 6 -8.3125 3.9375 C-6.07945419 0.64109904 -3.89983906 0 0 0 Z " fill="#FEDFF1" transform="translate(171,141)"/>
<path d="M0 0 C0.66 0 1.32 0 2 0 C2 4.29 2 8.58 2 13 C2.66 13.33 3.32 13.66 4 14 C2.02 14.99 2.02 14.99 0 16 C0 10.72 0 5.44 0 0 Z " fill="#E7569B" transform="translate(241,114)"/>
<path d="M0 0 C3.63 0 7.26 0 11 0 C11 0.33 11 0.66 11 1 C8.36 1.66 5.72 2.32 3 3 C2.34 5.31 1.68 7.62 1 10 C0.67 10 0.34 10 0 10 C0 8.02 0 6.04 0 4 C-0.66 4 -1.32 4 -2 4 C-2 3.34 -2 2.68 -2 2 C-1.34 2 -0.68 2 0 2 C0 1.34 0 0.68 0 0 Z " fill="#DC377A" transform="translate(136,176)"/>
<path d="M0 0 C0.99 0 1.98 0 3 0 C3.36923077 6.4 3.36923077 6.4 1.5 9.4375 C1.005 9.953125 0.51 10.46875 0 11 C-1.76062164 7.67438135 -2.10784228 6.40826005 -1.125 2.6875 C-0.568125 1.3571875 -0.568125 1.3571875 0 0 Z " fill="#B6AA1F" transform="translate(121,120)"/>
<path d="M0 0 C0.66 0 1.32 0 2 0 C2.66 2.97 3.32 5.94 4 9 C1.525 8.01 1.525 8.01 -1 7 C-1.33 7.66 -1.66 8.32 -2 9 C-1.125 2.25 -1.125 2.25 0 0 Z " fill="#F6C5E3" transform="translate(283,185)"/>
<path d="M0 0 C0.33 0 0.66 0 1 0 C1 2.64 1 5.28 1 8 C-2.75 9.125 -2.75 9.125 -5 8 C-5.72159424 6.35636866 -6.39351421 4.68949614 -7 3 C-4.03 3.495 -4.03 3.495 -1 4 C-0.67 2.68 -0.34 1.36 0 0 Z " fill="#FBD0EA" transform="translate(160,115)"/>
<path d="M0 0 C1.65 0 3.3 0 5 0 C5 0.66 5 1.32 5 2 C4.01 2 3.02 2 2 2 C2 2.66 2 3.32 2 4 C2.99 4 3.98 4 5 4 C5 4.66 5 5.32 5 6 C4.01 6 3.02 6 2 6 C2 6.99 2 7.98 2 9 C1.34 9 0.68 9 0 9 C0 6.03 0 3.06 0 0 Z " fill="#FEBDE4" transform="translate(269,185)"/>
<path d="M0 0 C2 1 2 1 2.6328125 2.84765625 C2.79523438 3.57855469 2.95765625 4.30945313 3.125 5.0625 C3.29257812 5.79597656 3.46015625 6.52945313 3.6328125 7.28515625 C3.75398438 7.85105469 3.87515625 8.41695312 4 9 C1.525 8.01 1.525 8.01 -1 7 C-1 7.66 -1 8.32 -1 9 C-1.66 9 -2.32 9 -3 9 C-2.01 6.03 -1.02 3.06 0 0 Z " fill="#F9CBE4" transform="translate(376,185)"/>
<path d="M0 0 C0.99 0.33 1.98 0.66 3 1 C3.144375 2.093125 3.28875 3.18625 3.4375 4.3125 C3.88288104 7.93122987 3.88288104 7.93122987 5 11 C5.66 11 6.32 11 7 11 C7.33 12.65 7.66 14.3 8 16 C7.34 16 6.68 16 6 16 C0.44419134 5.62642369 0.44419134 5.62642369 0 0 Z " fill="#C09E2D" transform="translate(78,150)"/>
<path d="M0 0 C0.99 0.33 1.98 0.66 3 1 C3 1.99 3 2.98 3 4 C7.95 4.33 12.9 4.66 18 5 C18 5.33 18 5.66 18 6 C12.06 6 6.12 6 0 6 C0 4.02 0 2.04 0 0 Z " fill="#B0C20D" transform="translate(58,100)"/>
<path d="M0 0 C3.0916909 2.52956528 3.90931332 5.22454612 5 9 C4.01 9.66 3.02 10.32 2 11 C2 9.35 2 7.7 2 6 C1.01 6 0.02 6 -1 6 C-1.042721 4.33388095 -1.04063832 2.66617115 -1 1 C-0.67 0.67 -0.34 0.34 0 0 Z " fill="#E72187" transform="translate(347,162)"/>
<path d="M0 0 C0.66 0 1.32 0 2 0 C2 0.99 2 1.98 2 3 C2.78375 3.061875 3.5675 3.12375 4.375 3.1875 C5.24125 3.455625 6.1075 3.72375 7 4 C8.1875 6.5 8.1875 6.5 9 9 C9.66 9.33 10.32 9.66 11 10 C10.01 10.495 10.01 10.495 9 11 C8.34 10.67 7.68 10.34 7 10 C7 9.34 7 8.68 7 8 C6.34 8 5.68 8 5 8 C5 7.34 5 6.68 5 6 C4.34 6 3.68 6 3 6 C3 5.34 3 4.68 3 4 C2.34 4 1.68 4 1 4 C0.67 2.68 0.34 1.36 0 0 Z " fill="#EA1482" transform="translate(89,156)"/>
<path d="M0 0 C0.33 0 0.66 0 1 0 C1 5.28 1 10.56 1 16 C1.66 16 2.32 16 3 16 C3 17.32 3 18.64 3 20 C1.68 19.67 0.36 19.34 -1 19 C-0.67 12.73 -0.34 6.46 0 0 Z " fill="#DB5166" transform="translate(117,132)"/>
<path d="M0 0 C2.31 0 4.62 0 7 0 C7 0.66 7 1.32 7 2 C6.34 2 5.68 2 5 2 C5 4.31 5 6.62 5 9 C4.34 9 3.68 9 3 9 C3 6.69 3 4.38 3 2 C2.01 2 1.02 2 0 2 C0 1.34 0 0.68 0 0 Z " fill="#FEAFDA" transform="translate(328,185)"/>
<path d="M0 0 C0.99 0.33 1.98 0.66 3 1 C3 1.66 3 2.32 3 3 C3.66 3 4.32 3 5 3 C5 4.32 5 5.64 5 7 C4.34 7 3.68 7 3 7 C3 6.34 3 5.68 3 5 C1.02 5 -0.96 5 -3 5 C-3 4.34 -3 3.68 -3 3 C-2.34 3 -1.68 3 -1 3 C-0.67 2.01 -0.34 1.02 0 0 Z " fill="#BD992E" transform="translate(135,169)"/>
<path d="M0 0 C0.99 0.66 1.98 1.32 3 2 C2.67 2.66 2.34 3.32 2 4 C1.34 4 0.68 4 0 4 C0 4.66 0 5.32 0 6 C-0.66 6 -1.32 6 -2 6 C-2 6.66 -2 7.32 -2 8 C-3.98 8.99 -3.98 8.99 -6 10 C-6.33 9.01 -6.66 8.02 -7 7 C-5.68 7 -4.36 7 -3 7 C-2.814375 6.1028125 -2.814375 6.1028125 -2.625 5.1875 C-2 3 -2 3 0 0 Z " fill="#E81C7B" transform="translate(152,158)"/>
<path d="M0 0 C-0.34879632 3.25543229 -1.02133261 4.01873107 -3.5625 6.25 C-4.366875 6.8275 -5.17125 7.405 -6 8 C-6.66 7.67 -7.32 7.34 -8 7 C-8 5 -8 5 -5.6875 2.375 C-3 0 -3 0 0 0 Z " fill="#C09B31" transform="translate(138,102)"/>
<path d="M0 0 C2.46800047 1.15173355 4.04783565 2.04783565 6 4 C6.125 7.125 6.125 7.125 6 10 C3.61405803 8.80702902 3.16265153 7.85642735 1.875 5.5625 C1.52179688 4.94503906 1.16859375 4.32757813 0.8046875 3.69140625 C0 2 0 2 0 0 Z " fill="#FEE8F8" transform="translate(155,139)"/>
<path d="M0 0 C0.66 0.33 1.32 0.66 2 1 C0.52631579 5.66666667 0.52631579 5.66666667 -1.875 7.1875 C-2.57625 7.455625 -3.2775 7.72375 -4 8 C-5.33722892 8.65881791 -6.6711444 9.32445207 -8 10 C-7.59007812 9.52949219 -7.18015625 9.05898437 -6.7578125 8.57421875 C-6.21898437 7.95160156 -5.68015625 7.32898438 -5.125 6.6875 C-4.59132813 6.07261719 -4.05765625 5.45773438 -3.5078125 4.82421875 C-1.8359553 2.86501788 -1.8359553 2.86501788 0 0 Z " fill="#E51F88" transform="translate(362,131)"/>
<path d="M0 0 C0.66 0.33 1.32 0.66 2 1 C0.68 2.65 -0.64 4.3 -2 6 C-2.33 4.68 -2.66 3.36 -3 2 C-3.66 2 -4.32 2 -5 2 C-5 4.64 -5 7.28 -5 10 C-5.33 10 -5.66 10 -6 10 C-6 7.03 -6 4.06 -6 1 C-3.03 1.495 -3.03 1.495 0 2 C0 1.34 0 0.68 0 0 Z " fill="#E35198" transform="translate(392,184)"/>
<path d="M0 0 C-0.33 1.65 -0.66 3.3 -1 5 C-2.8125 5.625 -2.8125 5.625 -5 6 C-5.99 5.34 -6.98 4.68 -8 4 C-7.01 4 -6.02 4 -5 4 C-4.67 3.01 -4.34 2.02 -4 1 C-2 0 -2 0 0 0 Z " fill="#A4CA02" transform="translate(151,167)"/>
<path d="M0 0 C0.66 0 1.32 0 2 0 C1.67 1.65 1.34 3.3 1 5 C1.99 5.33 2.98 5.66 4 6 C3.34 6 2.68 6 2 6 C2 6.66 2 7.32 2 8 C0.68 8 -0.64 8 -2 8 C-1.47731534 5.23723823 -0.89130413 2.6739124 0 0 Z " fill="#DE3A6F" transform="translate(140,164)"/>
<path d="M0 0 C0.33 0 0.66 0 1 0 C1 2.64 1 5.28 1 8 C1.66 8 2.32 8 3 8 C3 7.01 3 6.02 3 5 C3.66 5 4.32 5 5 5 C6.625 7 6.625 7 8 9 C5.36 9 2.72 9 0 9 C0 6.03 0 3.06 0 0 Z " fill="#D8257E" transform="translate(292,186)"/>
<path d="M0 0 C1.60031344 3.20062687 0.03173691 5.72271806 -1 9 C-1.66 9 -2.32 9 -3 9 C-3.66 6.36 -4.32 3.72 -5 1 C-4.34 1 -3.68 1 -3 1 C-3 1.66 -3 2.32 -3 3 C-2.34 3 -1.68 3 -1 3 C-0.67 2.01 -0.34 1.02 0 0 Z " fill="#FDC3E9" transform="translate(426,185)"/>
<path d="M0 0 C-0.33 2.97 -0.66 5.94 -1 9 C-2.32 7.35 -3.64 5.7 -5 4 C-1.125 0 -1.125 0 0 0 Z " fill="#E51A87" transform="translate(368,161)"/>
<path d="M0 0 C0.33 0.66 0.66 1.32 1 2 C1.66 2 2.32 2 3 2 C3.33 1.34 3.66 0.68 4 0 C4.66 2.31 5.32 4.62 6 7 C5.01 6.67 4.02 6.34 3 6 C3 5.34 3 4.68 3 4 C2.34 4 1.68 4 1 4 C0.67 4.99 0.34 5.98 0 7 C0 4.69 0 2.38 0 0 Z " fill="#FED0ED" transform="translate(294,187)"/>
<path d="M0 0 C0 3 0 3 -1.625 5.1875 C-4.60499012 7.46170299 -6.33924624 7.3327958 -10 7 C-7.96153279 5.64102186 -5.91973686 4.28702633 -3.875 2.9375 C-1.21312042 1.27685736 -1.21312042 1.27685736 0 0 Z " fill="#E3358C" transform="translate(219,166)"/>
<path d="M0 0 C4.875 1.875 4.875 1.875 6 3 C6.04080783 4.99958364 6.04254356 7.00045254 6 9 C4 8 4 8 2.875 4.9375 C2.441875 3.4834375 2.441875 3.4834375 2 2 C1.34 2 0.68 2 0 2 C0 1.34 0 0.68 0 0 Z " fill="#FFE6FA" transform="translate(155,124)"/>
<path d="M0 0 C1.875 0.5625 1.875 0.5625 4 2 C5.25 5.625 5.25 5.625 6 9 C5.01 9.66 4.02 10.32 3 11 C2.67 8.03 2.34 5.06 2 2 C1.34 2 0.68 2 0 2 C0 1.34 0 0.68 0 0 Z " fill="#E2278B" transform="translate(159,111)"/>
<path d="M0 0 C1.98 0 3.96 0 6 0 C6 0.99 6 1.98 6 3 C5.01 3.66 4.02 4.32 3 5 C2.87625 4.360625 2.7525 3.72125 2.625 3.0625 C2.315625 2.0415625 2.315625 2.0415625 2 1 C1.34 0.67 0.68 0.34 0 0 Z " fill="#E81F8A" transform="translate(94,176)"/>
<path d="M0 0 C0.66 0 1.32 0 2 0 C2.20086443 3.71599191 2.1519437 4.77208445 0 8 C-0.66 8 -1.32 8 -2 8 C-2 6.68 -2 5.36 -2 4 C-1.34 4 -0.68 4 0 4 C0 2.68 0 1.36 0 0 Z " fill="#AEB911" transform="translate(138,162)"/>
<path d="M0 0 C0.33 0 0.66 0 1 0 C1.66 3.3 2.32 6.6 3 10 C0.16671013 7.16671013 -0.7191375 5.64553172 -2 2 C-1.34 1.34 -0.68 0.68 0 0 Z " fill="#E1398B" transform="translate(398,141)"/>
<path d="M0 0 C0.33 0 0.66 0 1 0 C0.67 2.31 0.34 4.62 0 7 C0.99 7.33 1.98 7.66 3 8 C1.35 8.66 -0.3 9.32 -2 10 C-1.125 2.25 -1.125 2.25 0 0 Z " fill="#EB75B0" transform="translate(166,119)"/>
<path d="M0 0 C3.96 0 7.92 0 12 0 C11.67 1.32 11.34 2.64 11 4 C10.01 3.34 9.02 2.68 8 2 C5.9507906 1.54860541 5.9507906 1.54860541 3.8125 1.375 C1.9253125 1.189375 1.9253125 1.189375 0 1 C0 0.67 0 0.34 0 0 Z " fill="#E32088" transform="translate(371,109)"/>
<path d="M0 0 C1.32 0 2.64 0 4 0 C3.67 1.65 3.34 3.3 3 5 C2.01 5 1.02 5 0 5 C0 3.35 0 1.7 0 0 Z " fill="#EB3590" transform="translate(286,92)"/>
<path d="M0 0 C0.99 0.33 1.98 0.66 3 1 C3 3.64 3 6.28 3 9 C1.5 7.875 1.5 7.875 0 6 C-0.1875 2.8125 -0.1875 2.8125 0 0 Z " fill="#DD2481" transform="translate(298,185)"/>
<path d="M0 0 C0.36923077 5.53846154 0.36923077 5.53846154 -1.5 7.875 C-2.2425 8.431875 -2.2425 8.431875 -3 9 C-3 6.36 -3 3.72 -3 1 C-1 0 -1 0 0 0 Z " fill="#ACBC0F" transform="translate(121,127)"/>
<path d="M0 0 C1.32 0.33 2.64 0.66 4 1 C4 1.99 4 2.98 4 4 C4.99 4.33 5.98 4.66 7 5 C6.34 5.66 5.68 6.32 5 7 C4.01 6.34 3.02 5.68 2 5 C2 4.34 2 3.68 2 3 C1.34 2.67 0.68 2.34 0 2 C0 1.34 0 0.68 0 0 Z " fill="#FEEAF8" transform="translate(147,108)"/>
<path d="M0 0 C0.66 0 1.32 0 2 0 C1.690625 0.598125 1.38125 1.19625 1.0625 1.8125 C-0.10209704 4.08956772 -0.10209704 4.08956772 -1 7 C-1.99 7.33 -2.98 7.66 -4 8 C-3.40312566 4.65750371 -2.26396123 2.53563658 0 0 Z " fill="#ED85B9" transform="translate(169,135)"/>
<path d="M0 0 C1 2 1 2 0.1875 4.5625 C-1 7 -1 7 -3 8 C-3.36923077 3.44615385 -3.36923077 3.44615385 -1.5 1.1875 C-1.005 0.795625 -0.51 0.40375 0 0 Z " fill="#FEEBF8" transform="translate(165,119)"/>
<path d="M0 0 C0.33 1.32 0.66 2.64 1 4 C0.34 4 -0.32 4 -1 4 C-1 4.66 -1 5.32 -1 6 C-1.99 6 -2.98 6 -4 6 C-3.6875 4.125 -3.6875 4.125 -3 2 C-2.01 1.34 -1.02 0.68 0 0 Z " fill="#B2B615" transform="translate(131,108)"/>
<path d="M0 0 C2 1 2 1 2.6328125 2.84765625 C2.79523438 3.57855469 2.95765625 4.30945313 3.125 5.0625 C3.29257813 5.79597656 3.46015625 6.52945313 3.6328125 7.28515625 C3.75398437 7.85105469 3.87515625 8.41695312 4 9 C2.35 9 0.7 9 -1 9 C-0.34 8.67 0.32 8.34 1 8 C0.67 5.36 0.34 2.72 0 0 Z " fill="#E35D9E" transform="translate(145,98)"/>
</svg>
